<svg xmlns="http://www.w3.org/2000/svg" width="124.73" height="19" viewBox="0 0 124.73 19"><g transform="translate(-209.939 -7302)"><text transform="translate(316.939 7317)" fill="#585858" font-size="16" font-family="Rubik-Regular, Rubik" letter-spacing="0.01em" text-decoration="underline"><tspan x="-106.816" y="0">THIS IS A LINK</tspan></text><path d="M11.381,3.926a.623.623,0,0,0,0,.878l2.9,2.9H3.24a.62.62,0,0,0,0,1.24H14.271l-2.9,2.9a.628.628,0,0,0,0,.878.617.617,0,0,0,.873,0l3.93-3.958h0a.7.7,0,0,0,.129-.2.592.592,0,0,0,.048-.238.622.622,0,0,0-.176-.434L12.249,3.94A.608.608,0,0,0,11.381,3.926Z" transform="translate(318.314 7304.674)" fill="#585858"/></g></svg>